<?xml version="1.0" encoding="UTF-8"?>
<svg id="Laag_2" data-name="Laag 2" xmlns="http://www.w3.org/2000/svg" viewBox="0 0 438.66 438.66">
  <defs>
    <style>
      .cls-1 {
        fill: #f6f6f6;
      }

      .cls-1, .cls-2, .cls-3 {
        stroke-width: 0px;
      }

      .cls-2 {
        fill: #f2be22;
      }

      .cls-3 {
        fill: #1d1d1b;
      }
    </style>
  </defs>
  <g id="Laag_1-2" data-name="Laag 1">
    <path class="cls-2" d="M219.33,116.86c-56.59,0-102.46,45.88-102.46,102.47s45.87,102.46,102.46,102.46,102.47-45.87,102.47-102.46-45.88-102.47-102.47-102.47ZM219.33,229c-5.34,0-9.67-4.33-9.67-9.67s4.33-9.67,9.67-9.67,9.67,4.33,9.67,9.67-4.33,9.67-9.67,9.67Z"/>
    <path class="cls-3" d="M219.33,0C98.2,0,0,98.2,0,219.33s98.2,219.33,219.33,219.33,219.33-98.2,219.33-219.33S340.46,0,219.33,0ZM219.33,321.71c-56.55,0-102.38-45.83-102.38-102.38s45.83-102.38,102.38-102.38,102.38,45.84,102.38,102.38-45.83,102.38-102.38,102.38Z"/>
    <g>
      <path class="cls-1" d="M78.51,111.1c4.22,5.71,9.74,14.02,7.07,18.22l-3.92,6.17c-3.99,6.27-14.25,2.76-28.53-.32-12.42-2.69-16.8-1.01-20.76-3.53-2.73-1.74-3.05-4.69-1.31-7.44l7.59-11.93c1.42-2.23,4.04-2.97,6.36-1.49,2.85,1.81,3.65,5.8,6.33,7.51,6.3,4.01,20.46,4.58,23.02.56,2.34-3.68-1.37-11.15-4.54-13.17-7.78-4.95-15.02-.5-19.41-3.3-2.55-1.62-2.54-4.59-1.18-6.74l4.27-6.71c2-3.13,5.54-4.13,9.18.8,3.75,5.06,5.84,7.89,10.4,14.07,3.12,4.23,2.55,3.44,5.41,7.32Z"/>
      <path class="cls-1" d="M92.33,83.95c5.67,5.54,11.67,8.66,15.46,12.36,1.98,1.94,2,4.56.08,6.52-.5.51-7.15,7.32-7.65,7.83-1.92,1.97-4.54,2.01-6.52.08-3.78-3.7-7.05-9.63-12.71-15.17-5.67-5.54-13.33-10.27-15.55-12.45-2.23-2.18-1.44-5.12-.08-6.52.33-.33,7.32-7.5,7.65-7.83,1.36-1.4,4.29-2.25,6.52-.08,2.23,2.18,7.14,9.72,12.81,15.26Z"/>
      <path class="cls-1" d="M143.43,48.32c4.13,6.76,9.19,11.27,11.95,15.78,1.45,2.36.81,4.91-1.53,6.34-.61.37-4.43,2.71-7.07,4.32-2.65,1.62-5.3,1.92-10.24-1.16-6.37-3.97-20.3-15.66-22.75-14.16-.99.61.8,3.61,2.09,5.71,4.13,6.76,9.19,11.27,11.95,15.78,1.45,2.36.81,4.91-1.53,6.34-.6.37-8.73,5.34-9.33,5.71-2.34,1.43-4.89.84-6.34-1.53-2.76-4.51-4.47-11.07-8.6-17.83s-10.39-13.23-12.02-15.89c-1.62-2.66-.14-5.32,1.53-6.34.4-.24,4.32-2.64,4.71-2.88,4.74-2.9,6.84-1.58,13.14,2.35s20.05,14.51,22.34,13.11c1.11-.68.18-3.39-2.15-7.2-4.13-6.76-10.39-13.23-12.02-15.89-1.62-2.66-.14-5.32,1.53-6.34.4-.24,8.94-5.46,9.33-5.71,1.67-1.02,4.72-1.13,6.34,1.53,1.62,2.66,4.53,11.18,8.67,17.94Z"/>
      <path class="cls-1" d="M190.91,17.43c-1.13,4.52-1.9,6.85-3.28,12.35-.95,3.77-5.5,16.17-4.58,19.62,1.06,3.98,2.99,4.72,3.72,7.45.66,2.49-.83,4.53-3.48,5.24-.69.18-10.2,2.72-10.89,2.91-2.65.71-4.71-.55-5.33-2.85-.78-2.93.87-5.05-.05-8.51-.6-2.25-12.32-13.54-14.75-16.14-6.38-6.84-9.92-5.48-11.11-9.94-.76-2.85,1.08-4.95,4.22-5.79l16.76-4.47c2.56-.68,4.94.39,5.62,2.95.71,2.65-1.72,4.93-.7,8.74,1.33,5,9.33,11.74,12.47,10.91,2.76-.74,4.23-7.38,3.43-10.38-1.65-6.17-8.77-6.18-9.98-10.71-.77-2.87,1.33-4.75,3.79-5.4l9.08-2.42c3.59-.96,6.39,1.1,5.05,6.46Z"/>
      <path class="cls-1" d="M245.41,45.95c-.42,1.04-2.62,6.53-3.22,8.02-1.09,2.69-2.11,4.51-4.98,4.46-1.78-.03-34.79-.56-35.41-.58-2.75-.04-4.58-1.91-4.54-4.68.09-5.29,2.15-11.74,2.28-19.66.13-7.92-1.69-16.74-1.64-19.85.05-3.11,2.73-4.57,4.69-4.54.46,0,15.45.25,15.92.26,1.95.03,4.59,1.12,4.55,3.64-.08,5.24-7.01,4.29-7.28,20.75-.05,3.3.39,10.24,6.11,10.33,8.32.13,14.67-6.7,20.18-6.61,3.4.05,5.51,3.09,3.35,8.45Z"/>
    </g>
    <g>
      <path class="cls-1" d="M208.55,97.04c1.89,6.19-.64,15.07-8.02,17.33-7.26,2.22-14.06-2.32-18.45-7.93-.94-1.2-2.27-2.91-2.59-3.32-.64-.82-1.19-1.48-2.25-1.16-.61.19-1.31.86-1,1.88.45,1.47,4.61,8.86,5.4,11.42.75,2.46-.4,4.6-2.84,5.35l-9.71,2.97c-2.44.75-4.6-.38-5.35-2.84-1.44-4.7-1.45-10.99-3.6-18.03-2.15-7.04-6.28-14.31-7.12-17.07s1.11-4.82,2.84-5.35c0,0,17.9-5.47,27.84-8.51,7.98-2.44,14.95,3.04,16.74,8.9,1.79,5.86-.79,14.26-8.9,16.74l-10.41,3.18c2.58,1.91,7.67,1.76,12.08.41,6.89-2.1,8.26-6.92,11.33-7.86,1.4-.43,2.99.53,4.02,3.88ZM174.92,99.49l11.12-3.4c2.33-.71,3.64-3.18,2.93-5.51s-3.18-3.64-5.51-2.93l-11.12,3.4,2.58,8.44Z"/>
      <path class="cls-1" d="M258.4,106.69c-.5.91-2.65,4.79-3.37,6.09-1.31,2.36-2.46,3.91-5.1,3.54-2.8-.39-31.61-4.42-33.89-4.74-2.53-.35-4-2.29-3.65-4.83.68-4.87,3.32-10.58,4.34-17.86,1.02-7.29.34-15.62.74-18.48.4-2.86,3.04-3.9,4.83-3.65,1.79.25,29.68,4.15,32.31,4.52,2.64.37,3.32,2.18,3.93,4.81.34,1.45,1.03,4.43,1.26,5.44,1.21,5.23-2.46,8.49-6.29,7.95-5.07-.71-9.99-6.19-15.79-7-2.51-.35-5.3.72-5.6,2.91-.31,2.19,2.02,3.97,4.59,4.33,2.87.4,6.67.93,7.27,1.02,1.64.23,2.83,1.44,2.6,3.09s-1.83,2.47-3.35,2.25c-2.62-.37-3.97-3.1-7.11-3.54-2.82-.39-5.14,1.01-5.46,3.25-.33,2.34,1.67,4.88,6.03,5.49,7.63,1.07,14.5-3.47,19.57-2.76,3.13.44,4.73,3.48,2.13,8.17Z"/>
      <path class="cls-1" d="M289.55,119.87c-5,4.29-12.33,9.96-16.4,7.77l-5.97-3.22c-6.07-3.28-3.51-13.02-1.61-26.44,1.66-11.68-.19-15.63,1.88-19.46,1.43-2.64,4.14-3.14,6.8-1.71l11.56,6.23c2.17,1.17,3.02,3.54,1.8,5.79-1.49,2.76-5.13,3.77-6.53,6.37-3.29,6.1-2.87,19.26,1.03,21.36,3.56,1.92,10.23-2.02,11.89-5.08,4.06-7.53-.54-13.94,1.76-18.2,1.33-2.47,4.08-2.66,6.16-1.54l6.5,3.51c3.04,1.64,4.19,4.85-.12,8.56-4.44,3.81-6.92,5.94-12.33,10.58-3.71,3.18-3.02,2.59-6.41,5.5Z"/>
      <path class="cls-1" d="M312.7,130.3c-5.02,5.38-7.79,11.02-11.14,14.61-1.76,1.88-4.19,1.95-6.05.21-.48-.45-6.94-6.48-7.42-6.93-1.87-1.74-1.97-4.17-.21-6.05,3.35-3.59,8.79-6.74,13.81-12.12s9.26-12.59,11.23-14.7c1.97-2.11,4.73-1.45,6.05-.21.32.29,7.11,6.64,7.43,6.93,1.33,1.24,2.18,3.94.21,6.05-1.97,2.11-8.87,6.83-13.89,12.21Z"/>
      <path class="cls-1" d="M329.42,167.28c-6.47,1.28-15.64,2.63-18.1-1.27l-3.62-5.74c-3.69-5.84,3.33-13.07,11.58-23.83,7.18-9.37,7.5-13.71,11.19-16.04,2.54-1.6,5.15-.71,6.77,1.85l7.01,11.1c1.31,2.08.89,4.56-1.27,5.93-2.66,1.68-6.32.77-8.81,2.35-5.87,3.7-11.95,15.37-9.59,19.12,2.16,3.42,9.91,3.27,12.86,1.4,7.24-4.57,6.37-12.42,10.46-15,2.37-1.5,4.87-.32,6.13,1.68l3.95,6.25c1.84,2.92,1.27,6.29-4.31,7.4-5.74,1.14-8.94,1.78-15.94,3.16-4.79.95-3.9.77-8.29,1.65Z"/>
      <path class="cls-1" d="M332.53,222.81c-2.75.55-4.38-1.32-4.84-3.6-.42-2.1-2.93-14.56-3.06-15.2-.33-1.61.29-4.47,3.35-5.08,2.27-.46,4.2.87,6.09.49,2.82-.57,2.59-4.69,1.58-9.75-1.02-5.06-2.25-8.88-5.01-8.33-2.05.41-2.43,2.93-5.37,3.59-2.36.53-4.68-1.02-5.16-3.39l-.91-4.51c-.46-2.29.99-4.57,3.11-4.99,4.58-.92,5.57,5.18,20.55,7.73,4.81.82,3.92.67,8.33,1.42,6.5,1.11,6.84-2.21,10.07-2.86,2.99-.6,4.71,1.71,5.04,3.35.42,2.09,2.13,10.61,3,14.92.87,4.31-2,5.17-3.28,5.43-3.26.66-7.27.76-17.28,7.01-10.01,6.25-11.95,12.91-16.22,13.76ZM339.66,195.02c.25,1.26,1.64,1.93,2.79,1.35,1.06-.54,2.2-1.18,3.34-1.84,3.65-2.14,7.74-4.84,7.22-7.41-.62-3.08-5-3.54-7.28-3.93s-5.68-.97-5.68-.97c-1.34-.23-2.82.75-2.51,2.25l2.12,10.56Z"/>
      <path class="cls-1" d="M327.75,271.17c-.85-.61-5.32-3.79-6.54-4.66-2.19-1.57-3.61-2.89-2.93-5.47.42-1.6,8.12-31.26,8.27-31.83.64-2.47,2.73-3.72,5.22-3.07,4.75,1.23,10.12,4.51,17.24,6.36,7.12,1.85,15.48,2.14,18.27,2.86,2.8.73,3.52,3.47,3.07,5.22-.11.42-3.61,13.89-3.72,14.31-.46,1.75-2.02,3.9-4.28,3.31-4.71-1.22-2.34-7.27-17.13-11.11-2.96-.77-9.33-1.89-10.66,3.25-1.94,7.48,2.83,14.7,1.55,19.66-.79,3.06-4,4.3-8.36,1.17Z"/>
    </g>
  </g>
</svg>