<?xml version="1.0" encoding="UTF-8"?>
<svg id="Laag_1" data-name="Laag 1" xmlns="http://www.w3.org/2000/svg" viewBox="0 0 50 50">
  <defs>
    <style>
      .cls-1 {
        fill: none;
      }

      .cls-1, .cls-2 {
        stroke: #000;
        stroke-linejoin: round;
      }

      .cls-3 {
        stroke-width: 0px;
      }
    </style>
  </defs>
  <path class="cls-2" d="M44.96,1.84v26.9c0,10.11-8.2,18.31-18.31,18.31s-18.3-8.2-18.3-18.31v-5.12h12.85v5.12c0,3.02,2.44,5.46,5.45,5.46s5.46-2.44,5.46-5.46v-8.04h8.38V1.84h4.47Z"/>
  <g>
    <path class="cls-3" d="M10.99,17.93c.14-.2.32-.36.53-.49.1-.06.16-.11.19-.14.02-.02.04-.07.07-.13,0-.02.02-.04.04-.06.05-.07.12-.11.23-.12.25-.02.48.04.71.21.16.11.24.25.24.42,0,.09-.03.17-.08.25-.05.07-.1.12-.16.14-.06.02-.14.03-.25.02-.15-.01-.26-.02-.33-.01-.07,0-.15.02-.22.05-.18.07-.33.18-.43.32-.1.14-.13.29-.09.44.04.15.15.29.31.4.23.16.48.25.76.26.37.02.66-.13.87-.43.08-.11.14-.23.18-.37.04-.13.05-.25.04-.35-.01-.09,0-.14.02-.18.03-.05.08-.07.15-.08.07,0,.13.02.19.06.08.05.15.14.21.25.06.11.1.22.11.33,0,.04-.02.12-.07.22-.03.06-.05.14-.07.26-.05.27-.15.51-.3.73-.16.23-.37.42-.63.58-.3.18-.62.27-.97.25-.34-.01-.64-.11-.89-.29-.3-.21-.5-.49-.61-.85-.1-.31-.11-.64-.04-.98.05-.26.16-.5.31-.71Z"/>
    <path class="cls-3" d="M12.82,15.82c.1-.11.2-.17.29-.2.1-.03.18,0,.24.05.09.09.12.2.08.34-.06.23-.18.45-.38.66-.08.09-.17.14-.25.16-.11.03-.2,0-.28-.06-.1-.1-.11-.25-.03-.45.08-.21.19-.38.31-.51ZM13.94,16.19l1.03.97c.08.08.15.13.2.15.05.02.12.02.19,0,.06-.01.11-.02.14-.01.03,0,.06.02.09.05.15.14.04.42-.33.81-.2.21-.38.37-.53.46-.05.03-.1.05-.16.04-.05,0-.1-.02-.14-.06-.03-.03-.05-.06-.06-.09,0-.03,0-.09.01-.18,0-.06-.01-.13-.06-.21-.05-.07-.13-.17-.25-.28-.04-.04-.11-.1-.23-.2-.11-.1-.18-.15-.2-.17-.05-.04-.12-.04-.21,0-.1.04-.19.04-.25-.02-.08-.07-.08-.17-.03-.3.08-.18.17-.37.28-.56s.21-.33.29-.41c.06-.07.13-.07.2,0Z"/>
    <path class="cls-3" d="M15.64,15.3l.53.63c.06.07.13.12.21.13.08.01.15,0,.21-.05.05-.04.1-.12.14-.23,0-.03.02-.05.04-.07.03-.03.07-.03.13-.02.06.01.1.04.14.08.06.08.08.19.06.33-.05.3-.21.56-.47.78-.2.17-.42.25-.63.25-.22,0-.41-.1-.56-.29l-.73-.86s-.04-.04-.05-.04c-.01,0-.03.01-.06.04l-.2.17s-.07.05-.09.04c-.02,0-.05-.03-.09-.07l-.07-.08s-.04-.08-.03-.12l.42-1.28s.03-.06.07-.09l.16-.13s.06-.04.08-.03c.02,0,.05.03.09.07l.21.25s.06.06.08.06.05-.01.09-.05l.35-.3s.09-.06.11-.05c.03,0,.07.03.11.09l.09.11c.05.06.08.11.08.15,0,.04-.02.08-.07.12l-.35.29s-.05.06-.06.08c0,.02.01.05.04.09Z"/>
    <path class="cls-3" d="M18.55,13.98l.19.93c.05.23.07.43.08.59,0,.16-.01.31-.05.45-.08.29-.25.51-.51.67-.21.13-.41.18-.61.16-.15-.02-.27-.09-.35-.22-.07-.11-.09-.22-.06-.33s.09-.21.19-.27c.1-.06.21-.08.31-.05.05.01.09.03.11.04s.07.06.14.13c.05.05.11.06.16.03.04-.03.07-.07.07-.12,0-.06,0-.11-.04-.17-.04-.07-.15-.15-.31-.25l-1.18-.74c-.12-.08-.21-.12-.25-.13-.04-.01-.12,0-.24.01-.04,0-.07,0-.11-.02-.04-.02-.07-.04-.09-.07-.08-.12,0-.28.22-.49.15-.13.33-.27.54-.4.15-.09.28-.15.38-.18.14-.03.24,0,.3.1.02.03.03.08.03.15,0,.06,0,.11.03.15s.05.06.09.09c.04.03.11.07.21.12.11.06.19.08.23.06.04-.03.06-.1.06-.21,0-.11-.03-.21-.08-.29-.04-.06-.09-.1-.15-.12-.09-.03-.15-.06-.18-.11-.04-.07-.03-.16.04-.26.07-.1.19-.2.35-.31.3-.19.5-.21.58-.07.03.05.04.1.03.15-.01.05-.05.12-.11.19-.05.07-.08.14-.08.22,0,.13.02.33.07.59Z"/>
    <path class="cls-3" d="M21.59,12.49c-.06.02-.09.05-.1.09,0,.04.01.13.05.26.06.2.12.35.18.45.02.03.04.05.06.06.02.01.06.02.11.03.11.02.18.08.21.16.03.1-.01.2-.13.28s-.34.17-.66.27c-.59.18-.92.17-.99-.05-.01-.04-.01-.07,0-.1,0-.03.04-.07.09-.13.06-.07.09-.14.09-.21s0-.18-.05-.33c-.03-.11-.15-.51-.36-1.19-.07-.22-.12-.36-.17-.43-.05-.07-.11-.11-.2-.12-.08-.01-.14-.03-.17-.05-.03-.02-.05-.05-.07-.09-.02-.06-.01-.12.02-.17.03-.06.09-.11.16-.15.06-.04.16-.08.28-.11.05-.02.19-.05.4-.1.04,0,.1-.03.19-.05.14-.04.33-.11.57-.21.15-.06.25-.1.31-.12.34-.11.65-.11.92-.02.25.08.41.25.49.51.04.14.05.28.02.42-.03.14-.1.26-.21.35-.04.04-.06.08-.05.11.01.04.06.07.15.07.19,0,.34.06.45.15.12.09.23.26.34.5.05.1.09.16.12.18.04.02.11.03.22.03.03,0,.07.01.1.04.03.02.05.05.06.09.02.05.01.1-.01.16-.02.06-.06.12-.11.16-.12.1-.29.19-.52.26-.31.1-.56.09-.74-.03-.08-.05-.16-.13-.24-.22s-.18-.25-.31-.46c-.08-.14-.16-.23-.24-.27s-.17-.05-.27-.02ZM21.08,11.34l.14.55s0,.01,0,.02c.02.06.04.09.06.1.02.01.06.01.11,0,.14-.04.23-.11.27-.2.04-.09.04-.21,0-.37-.09-.3-.25-.42-.47-.35-.06.02-.1.05-.12.08-.02.04-.02.09,0,.16Z"/>
    <path class="cls-3" d="M26,11.92l-1.17.14c-.05,0-.07.03-.07.08.01.1.08.2.21.28.13.08.26.11.39.09.08-.01.17-.04.26-.08.09-.04.17-.09.23-.14.05-.05.09-.07.13-.08.04,0,.09.02.14.06.05.05.08.1.08.15.01.12-.05.24-.18.36-.24.23-.53.36-.88.4-.35.04-.65-.02-.91-.19-.13-.08-.23-.19-.33-.32-.12-.17-.19-.36-.22-.56-.03-.27.02-.53.17-.76.12-.21.29-.37.51-.49.16-.09.34-.15.54-.17.31-.04.59.02.83.16.12.07.22.17.31.28.09.13.15.25.17.38.01.1,0,.19-.04.27-.04.07-.09.11-.16.12ZM24.84,11.61l.25-.03c.11-.01.15-.07.14-.16-.01-.09-.04-.15-.1-.2-.06-.05-.13-.07-.21-.06-.09.01-.16.06-.21.13-.04.07-.06.14-.05.21,0,.05.02.08.05.1.03.02.07.02.13.01Z"/>
    <path class="cls-3" d="M27.66,10.6c.3,0,.56.08.78.24.21.14.32.32.31.52,0,.14-.06.25-.16.34-.1.08-.21.12-.34.12-.14,0-.24-.05-.31-.15-.02-.03-.05-.11-.09-.24-.04-.14-.13-.21-.25-.21-.09,0-.17.04-.24.11-.06.08-.1.17-.1.29,0,.2.06.37.2.53.11.12.26.19.44.19.08,0,.15,0,.21-.02.06-.01.13-.04.22-.08.02,0,.05-.01.08-.01.06,0,.11.03.15.08.04.05.06.12.06.19,0,.07-.03.15-.1.23s-.15.15-.25.21c-.22.12-.48.18-.77.18-.34,0-.63-.11-.87-.31-.3-.26-.45-.57-.44-.96,0-.37.16-.67.46-.9.28-.22.62-.33,1.01-.32Z"/>
    <path class="cls-3" d="M30.5,10.91c.3.06.55.18.75.38.14.14.25.3.31.5.07.2.08.4.05.6-.06.35-.28.61-.65.79-.35.17-.73.22-1.14.15-.39-.07-.69-.24-.89-.5-.2-.26-.26-.55-.2-.89.07-.38.27-.66.61-.85.35-.2.74-.25,1.17-.18ZM30.2,11.43c-.07-.01-.13,0-.19.05-.05.04-.09.11-.1.2-.02.1-.02.23-.02.4,0,.17.02.33.05.46.03.14.1.22.21.24.15.03.24-.05.27-.23.03-.13.03-.29.03-.47s-.02-.33-.06-.44c-.03-.12-.1-.19-.2-.21Z"/>
    <path class="cls-3" d="M33.13,11.64c.08.03.13.06.14.09,0,.03,0,.11-.03.24-.02.07,0,.11.04.13.03.01.07,0,.11-.03.2-.15.39-.18.6-.11.14.05.24.14.3.26.03.06.04.13.05.21s0,.15-.03.22c-.03.07-.07.14-.13.2s-.13.11-.2.14c-.13.06-.27.06-.42,0-.08-.03-.14-.07-.19-.11-.04-.05-.1-.13-.15-.25-.02-.04-.05-.07-.07-.08-.04-.02-.08,0-.11.04-.03.04-.07.14-.13.3-.08.23-.13.39-.14.48,0,.05,0,.09.01.11.01.02.05.06.11.1.13.09.17.19.13.29-.02.06-.06.11-.13.14-.06.03-.13.04-.22.03-.16-.02-.39-.09-.68-.19-.28-.1-.48-.2-.61-.3-.11-.09-.15-.19-.11-.29.03-.08.1-.13.22-.16.06-.01.1-.03.12-.04.03-.02.05-.05.07-.08.08-.13.18-.38.32-.76.03-.07.04-.12.03-.16,0-.04-.03-.07-.07-.11-.1-.08-.13-.17-.1-.25.03-.07.09-.12.18-.15.1-.03.24-.03.44-.02.27.02.49.06.66.11Z"/>
    <path class="cls-3" d="M37.53,12.99l-1.1,1.94c-.06.11-.1.18-.11.22s0,.08.03.14c.03.06.05.12.05.15,0,.04,0,.08-.03.11-.06.11-.23.13-.5.06-.24-.07-.47-.16-.68-.28-.05-.03-.07-.05-.08-.07,0-.02,0-.06.03-.11.03-.08.03-.13-.02-.15-.02-.01-.08-.01-.15,0-.22.03-.41,0-.6-.1-.22-.13-.38-.32-.47-.59-.05-.16-.07-.32-.07-.48,0-.21.06-.41.15-.58.11-.2.28-.36.5-.48.2-.11.42-.16.65-.15.19,0,.37.05.51.14.17.1.3.22.39.37.02.02.03.04.04.05.05.03.1-.02.17-.14.03-.05.04-.1.03-.14,0-.04-.04-.09-.1-.15-.08-.08-.09-.16-.05-.23.06-.1.21-.12.45-.06.43.11.71.2.83.27s.16.16.09.28ZM35.74,13.38c-.09-.05-.2-.05-.31.02-.15.09-.28.24-.4.45-.11.19-.16.36-.14.5,0,.1.06.17.15.22.09.05.19.04.3-.04.1-.08.22-.24.36-.48.12-.22.18-.38.17-.48,0-.08-.05-.14-.12-.19Z"/>
    <path class="cls-3" d="M38.31,14.49c.06.05.16.15.28.3.03.03.05.05.07.07.02.02.07.04.16.07.04.01.07.03.09.04.06.05.09.13.09.26,0,.1-.01.2-.04.29-.03.1-.06.17-.1.22-.04.05-.09.08-.16.08s-.12-.02-.18-.06c-.04-.04-.08-.08-.09-.13-.02-.05-.04-.14-.06-.28-.02-.15-.06-.24-.11-.28-.04-.03-.08-.04-.13-.04-.05,0-.09.02-.11.06-.05.06-.04.17.04.32.14.27.23.52.25.72.02.18-.03.33-.14.47-.14.18-.34.26-.59.25-.22,0-.43-.09-.63-.25-.05-.04-.14-.12-.26-.25-.11-.12-.18-.18-.2-.19-.02-.01-.04-.03-.06-.04-.04-.03-.07-.05-.09-.06-.06-.05-.1-.1-.11-.16-.02-.09,0-.2.03-.34s.08-.24.14-.32c.09-.12.19-.14.28-.06.04.03.06.07.07.12.01.05.02.16.04.34,0,.1.02.17.04.22.02.05.05.09.09.12.04.04.09.05.13.05.04,0,.08-.02.11-.06.05-.06.04-.15-.02-.28-.13-.27-.2-.5-.2-.68,0-.18.05-.34.16-.48.12-.15.27-.24.46-.27.26-.05.51.02.74.21Z"/>
  </g>
  <circle class="cls-1" cx="26.65" cy="28.74" r=".89"/>
</svg>